/* XPM */
static char *c01c2597914e4735ca2189b67e498870SUFYrc7ql5Scli3N[] = {
/* columns rows colors chars-per-pixel */
"50 50 211 2 ",
"   c #0A0B0A",
".  c #0F1110",
"X  c #151515",
"o  c #1C1C1C",
"O  c #161A1A",
"+  c #201E1F",
"@  c #1F1F21",
"#  c #1E2221",
"$  c #232323",
"%  c #292927",
"&  c #2A2A2A",
"*  c #282728",
"=  c #343433",
"-  c #3E3E3E",
";  c #46433B",
":  c #544A3A",
">  c #3F3F41",
",  c #4C3746",
"<  c #454444",
"1  c #4A4B4A",
"2  c #5C5443",
"3  c #55514E",
"4  c #5B5B5B",
"5  c #565452",
"6  c #504C49",
"7  c #635A4B",
"8  c #635D56",
"9  c #5F615E",
"0  c #6F634D",
"q  c #69635A",
"w  c #746855",
"e  c #746B5E",
"r  c #786E5B",
"t  c #786C55",
"y  c #7C715B",
"u  c #7B715B",
"i  c #71624B",
"p  c #6F4962",
"a  c #5E676C",
"s  c #686463",
"d  c #776D65",
"f  c #7C7469",
"g  c #747372",
"h  c #7B7874",
"j  c #84755C",
"k  c #8A7A5F",
"l  c #84765B",
"z  c #857963",
"x  c #8B7C63",
"c  c #867B6B",
"v  c #907F61",
"b  c #847B72",
"n  c #887F76",
"m  c #847D7A",
"M  c #917571",
"N  c #8F805F",
"B  c #8C816A",
"V  c #938365",
"C  c #93846A",
"Z  c #97886A",
"A  c #9B8B6C",
"S  c #9A8865",
"D  c #8D8579",
"F  c #958974",
"G  c #9A8C73",
"H  c #91867A",
"J  c #938776",
"K  c #9E9277",
"L  c #A28E6D",
"P  c #A28C66",
"I  c #A4916E",
"U  c #A9936D",
"Y  c #A08F71",
"T  c #A49372",
"R  c #AA9574",
"E  c #AC9A76",
"W  c #A8977A",
"Q  c #AD9B7A",
"!  c #A69778",
"~  c #B29C75",
"^  c #B29E7A",
"/  c #B4A17D",
"(  c #BBA57D",
")  c #BFA87F",
"_  c #B6A077",
"`  c #C0A878",
"'  c #848484",
"]  c #8B8582",
"[  c #8B8C8A",
"{  c #948A84",
"}  c #938D8A",
"|  c #9C9385",
" . c #94918D",
".. c #9B938C",
"X. c #9D9592",
"o. c #9A9993",
"O. c #A29583",
"+. c #A1978D",
"@. c #A49A95",
"#. c #AA9D93",
"$. c #A49D9A",
"%. c #AA9F9A",
"&. c #AFA187",
"*. c #B3A280",
"=. c #BBA682",
"-. c #BDAA83",
";. c #B8A889",
":. c #ACA295",
">. c #ACA29D",
",. c #A0A09E",
"<. c #B4A59C",
"1. c #9F9DA0",
"2. c #A4A3A2",
"3. c #ADA8A4",
"4. c #B4AAA4",
"5. c #B6ABA7",
"6. c #BCB1AC",
"7. c #ADAEB0",
"8. c #B3B3B3",
"9. c #B9BAB8",
"0. c #C3AD84",
"q. c #C5AE8C",
"w. c #CAB286",
"e. c #C5B18A",
"r. c #CCB58B",
"t. c #CCB88C",
"y. c #C4B187",
"u. c #D5BC8E",
"i. c #D8BD8E",
"p. c #CCB894",
"a. c #CAB693",
"s. c #D3BD92",
"d. c #D9BE91",
"f. c #C1B5AE",
"g. c #C3B9AF",
"h. c #C2B7B1",
"j. c #C4BAB4",
"k. c #CABDB5",
"l. c #CBBEBA",
"z. c #D6C195",
"x. c #DAC294",
"c. c #D3C29E",
"v. c #DCC59A",
"b. c #DEC99E",
"n. c #E1C695",
"m. c #E5CC9C",
"M. c #E9CD9D",
"N. c #E4C897",
"B. c #EBD09D",
"V. c #E6D09F",
"C. c #F0D29E",
"Z. c #CBC1B7",
"A. c #D2C5BD",
"S. c #E6CEA1",
"D. c #E9CEA2",
"F. c #E7D1A5",
"G. c #EBD2A4",
"H. c #EBD5A9",
"J. c #F1D5A3",
"K. c #F2D9AB",
"L. c #F7DAA6",
"P. c #F3DEB2",
"I. c #FAE1B2",
"U. c #BDBEC0",
"Y. c #BFC3C6",
"T. c #C3C4C4",
"R. c #CCCCCE",
"E. c #CDC8C4",
"W. c #D4C6C1",
"Q. c #D7CAC4",
"!. c #DCCEC8",
"~. c #D8C9C6",
"^. c #D7D1CD",
"/. c #D2D3D3",
"(. c #DCDBDD",
"). c #E2D4CE",
"_. c #ECDDD6",
"`. c #EEDFD9",
"'. c #E6D7D0",
"]. c #F0DED8",
"[. c #EFE0D9",
"{. c #EEE0D7",
"}. c #F1E2DB",
"|. c #DEDEE0",
" X c #DFE0E2",
".X c #E2E3E5",
"XX c #E4E6EA",
"oX c #EAEAEC",
"OX c #E7E9EA",
"+X c #F4E5E0",
"@X c #F8E7E0",
"#X c #F7E9E1",
"$X c #FBEBE4",
"%X c #FEEEE8",
"&X c #FFF2EB",
"*X c #F1F1EF",
"=X c #EDEEF1",
"-X c #EEF2F1",
";X c #F2F2F4",
":X c #F5F6FB",
">X c #FEFDFB",
",X c #FDFDFD",
"<X c #FFFFFD",
"1X c #FFFEFC",
"2X c #FEFEFE",
"3X c #FEFFFF",
"4X c white",
"5X c #FFFEFF",
"6X c #FDFEFE",
"7X c #FFFFFF",
"8X c #F6F8F7",
/* pixels */
"4X4X4X4X4X4X4X4X4X4X4X4X4X4X4X4X,X4X4X,X4X4X4X4X4X,X4X4X4X,X4X4X4X4X4X4X4X4X4X4X4X4X4X4X4X4X4X4X4X4X",
"4X4X4X4X4X4X4X4X4X4X4X4X4X4X4X4X4X4X4X4X4X4X4X4X4X,X4X,X4X4X,X4X4X4X4X4X,X4X4X4X4X4X4X4X4X4X4X4X4X4X",
"4X4X4X4X4X4X4X4X4X4X4X4X4X4X4X4X4X4X4X4X4X4X4X4X,X4X4X4X4X,X,X4X4X4X4X4X4X4X4X4X4X4X4X4X4X4X4X4X4X4X",
"4X4X4X4X4X4X4X4X4X,X4X4X,X,X4X,X4X4X,X,X4X4X4X4X4X4X4X4X,X,X,X,X,X4X4X4X4X4X4X4X4X4X4X4X4X4X4X4X4X4X",
"4X4X4X4X4X4X4X4X4X4X4X4X4X4X4X4X4X,X4X,X4X:X;XXXXXXXoXoX8X4X4X4X4X4X4X4X4X4X4X4X,X4X4X4X4X4X4X4X4X4X",
"4X4X4X4X4X4X4X4X4X4X4X4X4X4X4X,X4X4X(.>.h e r W =.^ C Q &.:.3.R.:X4X4X4X,X,X4X,X4X4X4X4X4X4X4X4X4X4X",
"4X4X4X4X4X4X4X4X4X4X4X,X4X4X4X4XOX..j S U I ( w.=.R ~ 0.( P ` ` K :.E..X4X4X4X4X4X4X4X4X4X4X4X4X4X4X",
"4X4X4X4X4X4X4X4X4X4X4X4X4X,X4X(.x P ( ~ ( ! ~ ) 0.A ~ ( i.d.=./ ~ S V G ..T.,X4X,X4X4X4X4X4X4X4X4X4X",
"4X4X4X4X4X4X4X4X4X4X4X4X4X,X;XF j L ^ w.T 0.n.~ L i.M.i.~ L 0.0.L q.0.U U ( ..=X4X4X4X4X4X4X4X4X4X4X",
"4X4X4X4X4X4X4X4X4X4X4X4X,X4X6.0 j C.n.R w.` P r.C.0.P U r.M.( U N.=.U M.n.( P :.4X,X4X4X4X4X4X4X4X4X",
"4X4X4X4X4X4X4X4X4X4X4X4X4X4Xf w d.~ L ^ ~ q.N.r.L ( C.J.w.A ` d.S ` L.( L =.w.v R.4X,X4X,X4X4X4X4X4X",
"4X4X4X4X4X4X4X4X4X4X4X,X4XoX; z x x x j A L x v ^ n.L k S d.0.T n.N.U ( 0.0.C : T.4X,X4X4X4X4X4X4X4X",
"4X4X4X4X4X4X4X4X4X4X4X4X4X} *.p.q.F.q.p.c.;.e.p.W M C =.Z 7 w 2 k l Q Z A j f %.o.4X4X4X4X4X4X4X4X4X",
"4X4X4X4X4X4X4X4X4X4X,X4X(.B L.G.G.M.J.J.G.K.H.J.J.H.K.K.S.v.M.e >.).5.j d $.`.&XX..X4X4X4X4X4X4X4X4X",
"4X4X4X4X4X4X4X4X4X4X,X4Xo.r.B.S.D.F.S.S.G.F.m.m.m.m.m.S.G.m.M.O.+X}.z #.}.%X_.#XA.8.4X,X4X4X4X4X4X4X",
"4X4X4X4X4X4X4X4X4X4X4XXXJ K.S.H.F.D.D.D.m.m.m.m.m.M.M.m.S.N.M.J }._...6.<.} { ..4.g oX4X4X4X4X4X4X4X",
"4X4X4X4X4X4X4X4X4X,X4X7.=.K.H.F.m.V.F.m.m.M.G.H.G.D.x.J.D.J.e.X.@X6.`.A.`.#X%X]._.f.2.,X,X4X4X4X4X4X",
"4X4X4X4X4X4X4X4X4X,X4X3.y.K.S.V.m.m.M.m.m.m.H.G.s.f ..! x.I.G ~.)...%X&XQ.:.+.A.!.j.} ,X4X4X4X4X4X4X",
"4X4X4X4X4X4X4X4X4X,X4X} y.K.N.N.m.G.F.m.m.M.S.J.F ~.`.] 8 s.H +XQ.j._.b e | O.7 r 8 8 8X4X,X4X4X4X4X",
"4X4X4X4X4X4X4X4X4X,X4X' e.P.F.m.m.m.M.m.M.m.G.z.D j.#.'.$.G +.+X}.k.m ] ..g 9 ] Z.h 9.4X,X4X4X4X4X4X",
"4X4X4X4X4X4X4X4X4X,X4X[ e.P.H.F.D.S.M.F.m.m.J.p.m X.4.o.d L { %X}.5.>.$.[ a @ l.h.h.8.4X,X4X4X,X4X,X",
"4X4X4X4X4X4X4X4X4X,X4X7.W I.F.H.D.B.V.F.m.m.G.c.m f.E.w -.V X.&X_.}.#X}.4.] h ).>.A...=X4X4X4X4X4X4X",
"4X4X4X4X4X4X4X4X4X,X4X,XD F.G.F.S.m.S.m.V.m.G.c.m j._.B =.Z b }.}.[.[.[.$X$X$X@XQ.>.j.9.,X,X4X4X4X4X",
"4X4X4X4X4X4X4X4X4X4X,X4XR.F I.b.m.m.m.N.m.m.M.b.{ Q.!.u Q y ( q k.#X[.[.{._.}.#X`.W._.$.4X4X4X4X4X4X",
"4X4X4X4X4X4X4X4X4X4X4X,X4X9.K I.K.J.G.G.H.G.S.J.-.@.^.v *.q.c E e }.[.}.}.$X'.h.}.#X#X>./.,X4X4X4X4X",
"4X4X4X4X4X4X4X4X4X4X4X,X,X4XY.b ;.&.r.v.z.z.m.m.i.h d z d.q.t./ L o.&X).!.)...Z.).!.&X#.9.4X,X,X,X4X",
"4X4X4X4X4X4X4X4X4X4X4X4X4X,X4X7.o.).4.>.+.n b b H !.7 x s.r.=.Q s.r 6.! u #.6.] d B b 2.4X4X4X4X4X,X",
"4X4X4X4X4X4X4X4X4X4X4X4X4X4X4X8Xo.$X$X#X$X$X}.[.&X6.Z v.^ V ^ e.T E u Z f { <.z ^ / 7 OX4X4X4X4X4X4X",
"4X4X4X4X4X4X4X4X4X4X4X4X4X4X4X,X} ].`.`._.`.}.{.$X+.A e.! S.G.e.Z s.V W | Q I V A 7 : /.4X,X,X4X4X4X",
"4X4X4X4X4X4X4X4X4X4X4X4X4X4X4X,Xg `.}.}.}.[.}._.$X#.t.E 0.0./ T e.C z C 0 G V ! M s T.,X4X4X4X4X4X4X",
"4X4X4X4X4X4X4X4X4X4X4X4X4X4X4X-X} @X`.].}.}.}.`.$X:.N e.-.V =.z.r.E t.C V w ; , p 8.4X,X4X4X4X4X4X4X",
"4X4X4X4X4X4X4X4X4X4X4X,X4X,X4X.X>.$X`.}.}.[.[.{.$X>.Y *.T I t.*.A R =.T s.Q T W z D ,X,X,X4X4X4X4X4X",
"4X4X4X4X4X4X4X4X4X4X4X4X4X,X,X9.Z.#X}.}.}.{.}._.#Xj.j x.^ s.e.Z s.*.V ! K E ( r.Z w (.4X4X4X,X4X4X4X",
"4X4X4X4X4X4X4X4X4X4X4X4X4X4X8XX.}._._.}.}.}.}.].}.'.8 / r.t.G.C e.T r.A C Q T Q -.B o.4X,X4X4X,X4X4X",
"4X4X4X4X,X4X4X4X4X,X8X4X4X4X/.4.&X$X%X}._.}.}.}._.%Xb V ( z.s.Q s.Q G.r / =.A Y V.k B ,X4X4X4X,X4X4X",
"4X4X4X4X4X4X4X4X,X4X4X.X< 1 - < 3 s <.}.%X_.{.}.}.}._.>.r E b.^ A E r.w -.y.A Z A =.] 4X,X4X4X4X4X4X",
"4X4X4X4X4X4X4X,X4X/.8.h . $ $ # o o X < >.$X$X`.{.[.}.&XZ.f W S / m.x V Q e./ A 2 u F ;X4X,X4X4X4X4X",
"4X4X4X4X,X,X4X4XU.* X o o o * $ o * & $ X 5 k.%X#X_._._.#X+X~.d y -.Z ^ =.-.Z E / e.T  X4X4X4X4X4X4X",
"4X4X4X4X4X4XoX .X $ & & * $ o % $ o o $ & @ o 4 l.%X#X}._.}._.} j.y ^ v.z.x K m.G 0.q ,X4X,X4X,X4X4X",
"4X4X,X4X2.< $ X $ o o o o $ * * % % * o X $ % O $ q h.}.%X@X}.] _.2.o.z ( =.z.m.S 7 ^.4X,X4X4X4X4X4X",
"4X,X4X4X1.3 - o X o % * $ $ o o o o $ * * + o + $ O o 6 { k._.}.>.4 4X.X| B G y J 9.4X,X4X,X4X4X4X4X",
"4X4X4X4X4X4X,XU.[ 1 $ X o X o * & $ o o o $ * $ o + o X X o = s 5   s 4X,XOX(. X4X4X,X4X4X4X4X4X4X4X",
"4X4X4X4X,X,X4X4X4X4X(.7.o.' 1 o X $ & & $ o o o + % $ $ + + X . O & X R.4X4X,X4X,X,X4X4X4X4X4X4X4X4X",
"4X4X4X4X4X4X4X,X,X4X4X4X4X4X4X/.' > O X $ & & % + o + % & % * $ o # X 4 4X,X4X,X4X4X4X4X4X4X,X4X4X4X",
"4X4X4X4X4X4X4X4X4X4X,X,X4X,X4X4X,X,XT.h < o X $ & & & & & & & & & & * * OX4X4X,X,X4X4X4X4X4X4X4X4X4X",
"4X4X4X4X4X4X4X4X4X4X4X4X4X4X4X,X,X4X4X,X4XT.g = o X X O o # o $ $ o $ o ^.4X,X4X4X4X4X4X4X4X4X4X4X4X",
"4X4X4X4X4X4X4X4X4X4X,X4X4X4X4X4X,X4X,X,X4X4X4X;XR.7.D 9 1 < < < < 1 = & (.4X,X4X4X4X4X4X4X4X4X4X4X4X",
"4X4X4X4X4X4X4X4X4X4X4X4X4X4X4X4X4X4X,X4X4X,X,X4X4X4X,X,X4X4X4X,X4X4X*X;X4X,X,X4X4X4X4X4X4X4X4X4X4X4X",
"4X4X4X4X4X4X4X4X4X4X4X4X4X4X4X4X4X4X4X4X4X4X4X4X,X,X,X,X4X4X4X,X4X4X,X4X4X4X4X4X4X4X4X4X4X4X4X4X4X4X",
"4X4X4X4X4X4X4X4X4X4X4X4X4X4X4X4X4X4X4X4X4X4X4X4X4X4X4X4X4X4X4X4X4X4X4X4X4X4X4X4X4X4X4X4X4X4X4X4X4X4X"
};
